<?xml version="1.0" standalone="no"?>
<svg xmlns:xlink="http://www.w3.org/1999/xlink" id="wave" style="transform:rotate(0deg); transition: 0.3s" viewBox="0 0 1440 370" version="1.1" xmlns="http://www.w3.org/2000/svg"><defs><linearGradient id="sw-gradient-0" x1="0" x2="0" y1="1" y2="0"><stop stop-color="rgba(255, 249, 234, 1)" offset="0%"/><stop stop-color="rgba(255, 249, 234, 1)" offset="100%"/></linearGradient></defs><path style="transform:translate(0, 0px); opacity:1" fill="url(#sw-gradient-0)" d="M0,259L205.7,0L411.4,148L617.1,185L822.9,111L1028.6,148L1234.3,0L1440,185L1645.7,74L1851.4,259L2057.1,74L2262.9,222L2468.6,222L2674.3,185L2880,111L3085.7,0L3291.4,0L3497.1,74L3702.9,148L3908.6,333L4114.3,37L4320,296L4525.7,222L4731.4,222L4937.1,74L4937.1,370L4731.4,370L4525.7,370L4320,370L4114.3,370L3908.6,370L3702.9,370L3497.1,370L3291.4,370L3085.7,370L2880,370L2674.3,370L2468.6,370L2262.9,370L2057.1,370L1851.4,370L1645.7,370L1440,370L1234.3,370L1028.6,370L822.9,370L617.1,370L411.4,370L205.7,370L0,370Z"/></svg>