<?xml version="1.0" standalone="no"?>
<svg xmlns:xlink="http://www.w3.org/1999/xlink" id="wave" style="transform:rotate(0deg); transition: 0.3s" viewBox="0 0 1440 370" version="1.1" xmlns="http://www.w3.org/2000/svg"><defs><linearGradient id="sw-gradient-0" x1="0" x2="0" y1="1" y2="0"><stop stop-color="rgba(255, 249, 234, 1)" offset="0%"/><stop stop-color="rgba(255, 249, 234, 1)" offset="100%"/></linearGradient></defs><path style="transform:translate(0, 0px); opacity:1" fill="url(#sw-gradient-0)" d="M0,259L34.3,215.8C68.6,173,137,86,206,67.8C274.3,49,343,99,411,129.5C480,160,549,173,617,166.5C685.7,160,754,136,823,129.5C891.4,123,960,136,1029,117.2C1097.1,99,1166,49,1234,55.5C1302.9,62,1371,123,1440,135.7C1508.6,148,1577,111,1646,123.3C1714.3,136,1783,197,1851,197.3C1920,197,1989,136,2057,129.5C2125.7,123,2194,173,2263,197.3C2331.4,222,2400,222,2469,215.8C2537.1,210,2606,197,2674,178.8C2742.9,160,2811,136,2880,104.8C2948.6,74,3017,37,3086,18.5C3154.3,0,3223,0,3291,12.3C3360,25,3429,49,3497,74C3565.7,99,3634,123,3703,166.5C3771.4,210,3840,271,3909,252.8C3977.1,234,4046,136,4114,129.5C4182.9,123,4251,210,4320,240.5C4388.6,271,4457,247,4526,234.3C4594.3,222,4663,222,4731,197.3C4800,173,4869,123,4903,98.7L4937.1,74L4937.1,370L4902.9,370C4868.6,370,4800,370,4731,370C4662.9,370,4594,370,4526,370C4457.1,370,4389,370,4320,370C4251.4,370,4183,370,4114,370C4045.7,370,3977,370,3909,370C3840,370,3771,370,3703,370C3634.3,370,3566,370,3497,370C3428.6,370,3360,370,3291,370C3222.9,370,3154,370,3086,370C3017.1,370,2949,370,2880,370C2811.4,370,2743,370,2674,370C2605.7,370,2537,370,2469,370C2400,370,2331,370,2263,370C2194.3,370,2126,370,2057,370C1988.6,370,1920,370,1851,370C1782.9,370,1714,370,1646,370C1577.1,370,1509,370,1440,370C1371.4,370,1303,370,1234,370C1165.7,370,1097,370,1029,370C960,370,891,370,823,370C754.3,370,686,370,617,370C548.6,370,480,370,411,370C342.9,370,274,370,206,370C137.1,370,69,370,34,370L0,370Z"/></svg>